<svg xmlns="http://www.w3.org/2000/svg" viewBox="0 0 266 428"><defs><style>.cls-1{fill:none;stroke:#fff;stroke-miterlimit:10;stroke-width:5px;}.cls-2{fill:#fff;}</style></defs><g id="Layer_2" data-name="Layer 2"><g id="Layer_2-2" data-name="Layer 2"><path class="cls-1" d="M106,2.5h145a7.78,7.78,0,0,1,7.69,7.87V281.09a5.52,5.52,0,0,1-.45,2.2c-.74,1.67-2.08,5-1.93,6.61.19,2.21,2.94,4.41,3.72,6s.2,6.21,0,8,3.53,4.41,3.53,7.22-2,6.61-3.53,7.22-10,.6-11.76,2-10,8.42-12.36,8.62-6.07-3.61-9-3.61-8.83-.8-11,.41a7.2,7.2,0,0,0-2.38,2.52,5.41,5.41,0,0,0-.59,4.29c.83,3.06,2.27,8.76,2,10.63-.4,2.61-3.53,7.82-6.47,9.63s-7.65,1.8-8.83,4.41-2.74,12.83-5.29,14.64-7.26.8-9.8,2.6-7.26,8.83-7.26,10,.39,10-.59,13-4.9,7.42-8.23,7.62-6.47-1.8-9-2.2-7.84-.6-9.41-2.41-.79-7.42-3.33-9.22-7.65-3.81-9.22-2.61c-1.38,1.06-4.74,6-5.52,7.17a4.29,4.29,0,0,1-.36.48l-3.27,3.85A5.54,5.54,0,0,0,127,404.5c.19,1.59.25,3.61-.39,4.71-1.18,2-3.92,7.42-7.85,7.62s-12.35-10.22-14.11-10.42-6.67,0-7.26.6-2.15,3.41-4.7,3.61-5.3.6-6.47,1.8-1.77,9.83-3.34,11-3.72,3-6.27,1.2S58.22,410,55.67,410s-4.31,2.81-6.67,2.81-4.11-3.61-6.66-3.61-4.71,1-4.51,2,2.94,4,1.57,6.21-2,3.61-3.92,2.61-2.36-4.81-4.12-5.21-6.08,1.4-7.84,1.4-5.3-4.21-7.65-3.61-2.35,5.42-2.35,7.62a5.53,5.53,0,0,1-3.34,5.18c-2,.64-6.07-2.57-6.66-4s-2-6.21,0-9A12.06,12.06,0,0,0,5.67,404c-.39-2.21.59-6.42,2.36-9.63s4.9-5.21,4.7-7.42-2.55-5.61-2.15-8,2.35-5.61,3.92-5.81,8.62-6,11-10,2.74-7.62,3.72-8.42,5.88-4.61,6.28-7.22,1.37-10.22,2.94-11.83,6.27-5.21,7.25-6.62,4.12-5,3.53-8.22S45.08,314,45.08,312s2.55-5,2.55-7.22-1.37-6.42-2.35-8.82-4.71-8.42-5.69-10.83-.39-6.22,0-7.22,3.92-2.64,3.53-5.63-2-4.8-1.57-7.4,5.89-6.22,5.89-9V21.93a7.25,7.25,0,0,1,10.12-6.76c4.38,1.89,9.62,3.25,14.58,2.22,9.17-1.9,23.32-10.14,28.79-13.48A9.59,9.59,0,0,1,106,2.5Z"/></g><g id="Layer_4" data-name="Layer 4"><rect class="cls-2" x="135.72" y="118.34" width="40.47" height="151.65" rx="3.96"/><rect class="cls-2" x="135.72" y="62.6" width="40.47" height="38.05" rx="3.66"/></g></g></svg>