<svg xmlns="http://www.w3.org/2000/svg" viewBox="0 0 267.61 444.16"><defs><style>.cls-1{fill:#fff;}.cls-2{fill:none;stroke:#fff;stroke-miterlimit:10;stroke-width:20px;}</style></defs><g id="Layer_2" data-name="Layer 2"><g id="Layer_4" data-name="Layer 4"><rect class="cls-1" x="131.12" y="138.48" width="40.47" height="151.65" rx="3.96"/><rect class="cls-1" x="131.12" y="82.73" width="40.47" height="38.05" rx="3.66"/></g><g id="Layer_5" data-name="Layer 5"><path class="cls-2" d="M57.29,24.16l16.2,2.45a16.09,16.09,0,0,0,11.09-2.35l18.61-11.89A15.08,15.08,0,0,1,111.31,10H243.72a8.17,8.17,0,0,1,8.17,8.18V285.69a20.62,20.62,0,0,0,2.38,9.61l.11.22a28.11,28.11,0,0,1-11.78,37.94h0a20.47,20.47,0,0,1-12.27,2.17l-8.88-1.2a13.63,13.63,0,0,0-14.1,7.57l-29.12,60.24a17.9,17.9,0,0,1-28.63,5h0a13,13,0,0,0-19.88,2.1L121.3,422a3.25,3.25,0,0,1-4.07,1.16l-15.32-7.05a5.85,5.85,0,0,0-6.38,1L78.91,432.23a7.44,7.44,0,0,1-8.17,1.22l-20.32-9.56A17.43,17.43,0,0,0,37.86,423l-4.94,1.53a17.7,17.7,0,0,1-22.87-18.23l1-14a21.38,21.38,0,0,1,3.8-10.67l23.87-34A37.44,37.44,0,0,0,44,315.5l-4-13.59a30.24,30.24,0,0,1,.9-19.76l3.82-9.62a40.72,40.72,0,0,0,2.87-14.29L51.51,29.05A5,5,0,0,1,57.29,24.16Z"/></g></g></svg>