<svg xmlns="http://www.w3.org/2000/svg" viewBox="0 0 358.88 120.26"><defs><style>.cls-1{fill:#2a4d87;}.cls-2{fill:#ffb718;}</style></defs><title>Asset 1</title><g id="Layer_2" data-name="Layer 2"><g id="Layer_1-2" data-name="Layer 1"><path class="cls-1" d="M0,74.12H12.46a12.05,12.05,0,0,1,4.15.69A8,8,0,0,1,19.82,77a10.24,10.24,0,0,1,2.08,3.66,16.12,16.12,0,0,1,.75,5.17v2A16.05,16.05,0,0,1,21.9,93a10.26,10.26,0,0,1-2.08,3.63,8,8,0,0,1-3.21,2.14,12.05,12.05,0,0,1-4.15.69H6.92v20H0ZM6.75,93h5.54A3.47,3.47,0,0,0,15,91.87a5.18,5.18,0,0,0,1-3.57V85.44a5.18,5.18,0,0,0-1-3.57,3.47,3.47,0,0,0-2.68-1.11H6.75Z"/><path class="cls-1" d="M25.58,74.12H44.07v7H32.22V93.22H43.46v6.52H32.22v12.75h12v7H25.58Z"/><path class="cls-1" d="M73.68,74.12H91.84v7H80.33V93.68H91.62v6.69H80.33v19.1H73.68Z"/><path class="cls-1" d="M105.57,120.26a10.62,10.62,0,0,1-7.92-3q-3-3-3-9.38V85.73a17.71,17.71,0,0,1,.77-5.55,10.38,10.38,0,0,1,2.21-3.89A8.82,8.82,0,0,1,101.11,74a12.83,12.83,0,0,1,4.46-.74,10.79,10.79,0,0,1,8,3q3,3,3,9.43v22.13q0,6.35-3,9.38A10.79,10.79,0,0,1,105.57,120.26Zm0-7a4,4,0,0,0,2.93-1.17,5.15,5.15,0,0,0,1.16-3.74V85.1a5.26,5.26,0,0,0-1.16-3.77,3.91,3.91,0,0,0-2.93-1.2,3.82,3.82,0,0,0-2.91,1.2,5.35,5.35,0,0,0-1.13,3.77v23.27a5.23,5.23,0,0,0,1.13,3.74A3.86,3.86,0,0,0,105.57,113.29Z"/><path class="cls-1" d="M141.22,119.46h-6.37a9,9,0,0,1-.49-2.63c-.14-1.63-.07-2.34-.28-5.6v-7.78a4.4,4.4,0,0,0-.64-2.66A2.9,2.9,0,0,0,131,100h-3.65v19.5h-6.92V74.12h11.13a9.31,9.31,0,0,1,6.92,2.46q2.44,2.46,2.44,8v4.86a10,10,0,0,1-1.08,5.17,6.71,6.71,0,0,1-2.91,2.6v.23a4.89,4.89,0,0,1,2.71,1.94,7.77,7.77,0,0,1,.83,4.06v9.09c0,1.37,0,6,.69,6.57Zm-14-25.27h4a3.37,3.37,0,0,0,2.49-.94,4.21,4.21,0,0,0,.94-3.06v-5a4.74,4.74,0,0,0-1-3.32,3.37,3.37,0,0,0-2.57-1h-3.93Z"/><path class="cls-1" d="M173.28,119.46V89.22H173l-7.31,30.24H160l-7.31-30.24h-.28v30.24h-6.15V74.12h9.36l7.14,31.27h.28l7.14-31.27h9.19v45.34Z"/><path class="cls-1" d="M198.52,113.23h-8.75l-1.11,6.23h-6.42l8-45.34h8.53l7.69,45.34h-6.92Zm-7.81-6.12h6.86l-3.21-20.35h-.22Z"/><path class="cls-1" d="M209.26,119.46V74.12h8.19l8.25,25H226v-25h6v45.34h-5.43l-10.8-30.07h-.28v30.07Z"/><path class="cls-1" d="M242.81,108.54a4.86,4.86,0,0,0,1.16,3.63,3.86,3.86,0,0,0,2.77,1.11c1.55,0,3.52-.48,3.7-2.43.1-5.77.17-7.79.17-7.79h6.26c-.08,1.19-.06,6.5-.26,8.95a7.13,7.13,0,0,1-1.4,4.31,9.49,9.49,0,0,1-3.38,2.89,10.49,10.49,0,0,1-4.87,1.06,13.06,13.06,0,0,1-4.48-.74,8.79,8.79,0,0,1-3.49-2.29,10.69,10.69,0,0,1-2.24-3.86,16.87,16.87,0,0,1-.8-5.52Z"/><path class="cls-1" d="M261.19,74.12h18.49v7H267.83V93.22h11.24v6.52H267.83v12.75h12v7H261.19Z"/><path class="cls-1" d="M235.95,86.53a16.87,16.87,0,0,1,.8-5.52A10.69,10.69,0,0,1,239,77.15a8.79,8.79,0,0,1,3.49-2.29,13.06,13.06,0,0,1,4.48-.74,10.49,10.49,0,0,1,4.87,1.06,9.49,9.49,0,0,1,3.38,2.89,7.13,7.13,0,0,1,1.4,4.31c.2,2.44.18,7.75.26,8.95h-6.26s-.17-1.19-.17-7.79c-.18-2-2.15-2.43-3.7-2.43A3.86,3.86,0,0,0,244,82.21a4.86,4.86,0,0,0-1.16,3.63Z"/><polygon class="cls-1" points="242.81 108.54 235.95 107.85 235.95 86.53 242.81 85.84 242.81 108.54"/><path class="cls-1" d="M69.64,119.6H63.27a9,9,0,0,1-.49-2.63c-.14-1.63-.07-2.34-.28-5.6v-7.78a4.4,4.4,0,0,0-.64-2.66,2.9,2.9,0,0,0-2.41-.83H55.8v19.5H48.88V74.27H60a9.31,9.31,0,0,1,6.92,2.46q2.44,2.46,2.44,8v4.86a10,10,0,0,1-1.08,5.17,6.71,6.71,0,0,1-2.91,2.6v.23a4.89,4.89,0,0,1,2.71,1.94,7.77,7.77,0,0,1,.83,4.06v9.09c0,1.37,0,6,.69,6.57Zm-14-25.27h4a3.37,3.37,0,0,0,2.49-.94,4.21,4.21,0,0,0,.94-3.06v-5a4.74,4.74,0,0,0-1-3.32,3.37,3.37,0,0,0-2.57-1H55.64Z"/><path class="cls-1" d="M38.86,60.34V4.11h-.3L21.46,60.34H20L2.71,4.11h-.3V60.34H.92V1.12H3.31L20.56,57.57h.3L38,1.12h2.39V60.34Z"/><path class="cls-1" d="M49,60.34,62.56,1.12H64.5L77.86,60.34H76.3L73.46,47.72h-20L50.61,60.34Zm4.7-14.11H73.09L63.68,3.88h-.3Z"/><path class="cls-1" d="M85.63,60.34V1.12H88.4l22.55,55.71h.3V1.12h1.49V60.34H110.8L87.42,2.61h-.3V60.34Z"/><path class="cls-1" d="M120.51,60.34,134,1.12H136l13.37,59.22h-1.57l-2.84-12.62h-20l-2.84,12.62Zm4.7-14.11h19.34L135.14,3.88h-.3Z"/><path class="cls-1" d="M182,16.87H180.5l-.08-7.17a8.66,8.66,0,0,0-1.79-4.22,8.93,8.93,0,0,0-3.47-2.91,12.79,12.79,0,0,0-5.64-1.08,11,11,0,0,0-8.59,3.58q-3.21,3.58-3.21,11.2v28.9q0,7.54,3.25,11.13a10.82,10.82,0,0,0,8.4,3.58,12.52,12.52,0,0,0,5.3-1A9,9,0,0,0,178.18,56a11.86,11.86,0,0,0,1.94-4.37,24.12,24.12,0,0,0,.6-5.53V31.41h-9.48V29.92h11V46.15a26.38,26.38,0,0,1-.67,6.16,12.82,12.82,0,0,1-2.2,4.82,10.29,10.29,0,0,1-4,3.14,14.33,14.33,0,0,1-6,1.12,12.32,12.32,0,0,1-9.48-4q-3.66-4-3.66-12.25V16.28q0-8.36,3.62-12.32a12.47,12.47,0,0,1,9.67-4,14.85,14.85,0,0,1,6.38,1.2,10,10,0,0,1,4,3.25,9.47,9.47,0,0,1,2,5.18Z"/><path class="cls-1" d="M190.26,1.12h22V2.61H191.75V29.5h19.79V31H191.75V58.84h20.76v1.49H190.26Z"/><path class="cls-1" d="M258.11,60.34V4.11h-.3l-17.1,56.23h-1.49L222,4.11h-.3V60.34h-1.49V1.12h2.39l17.25,56.45h.3l17.1-56.45h2.39V60.34Z"/><path class="cls-1" d="M268,1.12h22V2.61H269.51V29.5H289.3V31H269.51V58.84h20.76v1.49H268Z"/><path class="cls-1" d="M297.94,60.34V1.12h2.76l22.55,55.71h.3V1.12H325V60.34h-1.94L299.73,2.61h-.3V60.34Z"/><path class="cls-1" d="M345.06,60.34V2.61H332.74V1.12h26.14V2.61H346.56V60.34Z"/><path class="cls-2" d="M283.44,74.12h6.92V92.59h7.58V74.12h6.81v45.34h-6.81V99.11h-7.58v20.35h-6.92Z"/><path class="cls-2" d="M308.8,74.12h6.86v34.13a6.46,6.46,0,0,0,.91,3.72,3.54,3.54,0,0,0,3.13,1.31,3.45,3.45,0,0,0,3.13-1.31,6.91,6.91,0,0,0,.86-3.77V74.12h6.75v33.73q0,6.35-2.91,9.38a10.34,10.34,0,0,1-7.83,3,10.56,10.56,0,0,1-8-3q-2.91-3-2.91-9.38Z"/><path class="cls-2" d="M351.21,95.73a7,7,0,0,1,3.4,2.8,9.06,9.06,0,0,1,1.3,5v5.26q0,5.09-2.57,7.86T345,119.46H334.49V74.12h11.24q4.7,0,7,2.63t2.32,7.83V87.9a10.47,10.47,0,0,1-1,5,5.7,5.7,0,0,1-2.91,2.54Zm-10-14.86V92.82h3.82a3.91,3.91,0,0,0,2.74-.89,4.19,4.19,0,0,0,1-3.17v-3.6q0-4.29-3.71-4.29Zm0,31.84h3.82a4,4,0,0,0,3.1-1.09,5.16,5.16,0,0,0,1-3.54v-4.8a3.55,3.55,0,0,0-3.93-4.17h-4Z"/></g></g></svg>